<?xml version="1.0" standalone="no"?>
<!DOCTYPE svg PUBLIC "-//W3C//DTD SVG 1.1//EN"
"http://www.w3.org/Graphics/SVG/1.1/DTD/svg11.dtd">

<svg width="566" height="136" view_box="0 0 566 136"
xmlns="http://www.w3.org/2000/svg"
xmlns:link="http://www.w3.org/1999/xlink">\n\n<desc>Généré par Mocodo 2.3.7 le Mon, 11 Apr 2022 09:45:35</desc>

<rect id="frame" x="0" y="0" width="566" height="136" fill="#f5f5f5" stroke="none" stroke-width="0"/>

<!-- Association POSSEDER1 -->
<line x1="57" y1="68" x2="178" y2="68" stroke="#35978f" stroke-width="2"/>
<text x="110" y="85.0" fill="#8c510a" font-family="Verdana" font-size="12">1,1</text>
<line x1="292" y1="68" x2="178" y2="68" stroke="#35978f" stroke-width="2"/>
<text x="224" y="85.0" fill="#8c510a" font-family="Verdana" font-size="12">0,N</text>
<g id="association-POSSEDER1">
	<path d="M 205 43 a 14 14 90 0 1 14 14 V 68 h -82 V 57 a 14 14 90 0 1 14 -14" fill="#80cdc1" stroke="#80cdc1" stroke-width="0"/>
	<path d="M 219 68.0 v 11 a 14 14 90 0 1 -14 14 H 151 a 14 14 90 0 1 -14 -14 V 68.0 H 82" fill="#c7eae5" stroke="#c7eae5" stroke-width="0"/>
	<rect x="137" y="43" width="82" height="50" fill="none" rx="14" stroke="#35978f" stroke-width="2"/>
	<line x1="137" y1="68" x2="219" y2="68" stroke="#35978f" stroke-width="1"/>
	<text x="144" y="60.7" fill="#000000" font-family="Verdana" font-size="12">POSSEDER</text>
</g>

<!-- Association POSSEDER2 -->
<line x1="292" y1="68" x2="406" y2="68" stroke="#35978f" stroke-width="2"/>
<text x="338" y="85.0" fill="#8c510a" font-family="Verdana" font-size="12">0,N</text>
<line x1="518" y1="68" x2="406" y2="68" stroke="#35978f" stroke-width="2"/>
<text x="453" y="85.0" fill="#8c510a" font-family="Verdana" font-size="12">1,1</text>
<g id="association-POSSEDER2">
	<path d="M 433 43 a 14 14 90 0 1 14 14 V 68 h -82 V 57 a 14 14 90 0 1 14 -14" fill="#80cdc1" stroke="#80cdc1" stroke-width="0"/>
	<path d="M 447 68.0 v 11 a 14 14 90 0 1 -14 14 H 379 a 14 14 90 0 1 -14 -14 V 68.0 H 82" fill="#c7eae5" stroke="#c7eae5" stroke-width="0"/>
	<rect x="365" y="43" width="82" height="50" fill="none" rx="14" stroke="#35978f" stroke-width="2"/>
	<line x1="365" y1="68" x2="447" y2="68" stroke="#35978f" stroke-width="1"/>
	<text x="372" y="60.7" fill="#000000" font-family="Verdana" font-size="12">POSSEDER</text>
</g>

<!-- Entity BOISSON -->
<g id="entity-BOISSON">
	<g id="frame-BOISSON">
		<rect x="9" y="9" width="96" height="25" fill="#dfc27d" stroke="#dfc27d" stroke-width="0"/>
		<rect x="9" y="34.0" width="96" height="93" fill="#f6e8c3" stroke="#f6e8c3" stroke-width="0"/>
		<rect x="9" y="9" width="96" height="118" fill="none" stroke="#bf812d" stroke-width="2"/>
		<line x1="9" y1="34" x2="105" y2="34" stroke="#bf812d" stroke-width="1"/>
	</g>
	<text x="27" y="26.7" fill="#000000" font-family="Verdana" font-size="12">BOISSON</text>
	<text x="14" y="51.7" fill="#000000" font-family="Verdana" font-size="12">nom</text>
	<line x1="14" y1="54" x2="42" y2="54" stroke="#000000" stroke-width="1"/>
	<text x="14" y="68.8" fill="#000000" font-family="Verdana" font-size="12">description</text>
	<text x="14" y="85.8" fill="#000000" font-family="Verdana" font-size="12">volume</text>
	<text x="14" y="102.8" fill="#000000" font-family="Verdana" font-size="12">prix_comptoir</text>
	<text x="14" y="119.8" fill="#000000" font-family="Verdana" font-size="12">prix_salle</text>
</g>

<!-- Entity CATEGORIE -->
<g id="entity-CATEGORIE">
	<g id="frame-CATEGORIE">
		<rect x="251" y="43" width="82" height="25" fill="#dfc27d" stroke="#dfc27d" stroke-width="0"/>
		<rect x="251" y="68.0" width="82" height="25" fill="#f6e8c3" stroke="#f6e8c3" stroke-width="0"/>
		<rect x="251" y="43" width="82" height="50" fill="none" stroke="#bf812d" stroke-width="2"/>
		<line x1="251" y1="68" x2="333" y2="68" stroke="#bf812d" stroke-width="1"/>
	</g>
	<text x="256" y="60.7" fill="#000000" font-family="Verdana" font-size="12">CATEGORIE</text>
	<text x="256" y="85.8" fill="#000000" font-family="Verdana" font-size="12">nom</text>
	<line x1="256" y1="88" x2="284" y2="88" stroke="#000000" stroke-width="1"/>
</g>

<!-- Entity PLAT -->
<g id="entity-PLAT">
	<g id="frame-PLAT">
		<rect x="479" y="26" width="78" height="25" fill="#dfc27d" stroke="#dfc27d" stroke-width="0"/>
		<rect x="479" y="51.0" width="78" height="59" fill="#f6e8c3" stroke="#f6e8c3" stroke-width="0"/>
		<rect x="479" y="26" width="78" height="84" fill="none" stroke="#bf812d" stroke-width="2"/>
		<line x1="479" y1="51" x2="557" y2="51" stroke="#bf812d" stroke-width="1"/>
	</g>
	<text x="502" y="43.7" fill="#000000" font-family="Verdana" font-size="12">PLAT</text>
	<text x="484" y="68.8" fill="#000000" font-family="Verdana" font-size="12">nom</text>
	<line x1="484" y1="71" x2="512" y2="71" stroke="#000000" stroke-width="1"/>
	<text x="484" y="85.8" fill="#000000" font-family="Verdana" font-size="12">description</text>
	<text x="484" y="102.8" fill="#000000" font-family="Verdana" font-size="12">prix_salle</text>
</g>
</svg>